<svg height="512" viewBox="0 0 58 58" width="512" xmlns="http://www.w3.org/2000/svg"><g id="Page-1" fill="none" fill-rule="evenodd"><g id="046---Any-Solvent" fill-rule="nonzero"><circle id="Oval" cx="29" cy="29" fill="#14a085" r="29"/><path id="Shape" d="m47.72 12.43c-2.2104164-2.49523601-4.8960858-4.52478618-7.9-5.97-11.5824263-5.56450144-25.4969191-1.44685291-32.18593238 9.5246273-6.68901328 10.9714802-3.97586667 25.2265485 6.27584168 32.9737256 10.2517083 7.747177 24.7059568 6.4654439 33.4344537-2.9648062 8.7284968-9.4302502 8.8908907-23.9403076.375637-33.5635467z" fill="#26b99a"/><path id="Shape" d="m39.82 6.46c-12.16 2.82-28.07 10.75-33.72 32.58-4.19526279-9.5766384-1.98968443-20.7523848 5.5293007-28.0171694 7.5189852-7.2647846 18.7639508-9.08484846 28.1906993-4.5628306z" fill="#81ccb8"/><g fill="#fff"><path id="Shape" d="m42.763 40.831-11-26c-.4695193-1.110033-1.5577524-1.8313123-2.763-1.8313123s-2.2934807.7212793-2.763 1.8313123l-11 26c-.4176435.9871248-.2769372 2.1220759.3691163 2.9773282.6460534.8552523 1.6993031 1.3008726 2.763 1.1690001 1.0636969-.1318726 1.9762402-.8212034 2.3938837-1.8083283l2.187-5.169h12.1l2.187 5.169c.4176435.9871248 1.3301868 1.6764556 2.3938837 1.8083282 1.0636969.1318725 2.1169466-.3137477 2.763-1.169s.7867598-1.9902034.3691163-2.9773282zm-17.275-8.831 3.512-8.3 3.512 8.3z"/><path id="Shape" d="m29 55c-14.3594035 0-26-11.6405965-26-26s11.6405965-26 26-26 26 11.6405965 26 26c-.0159821 14.3527783-11.6472217 25.9840179-26 26zm0-50c-13.254834 0-24 10.745166-24 24s10.745166 24 24 24 24-10.745166 24-24c-.0154295-13.2484376-10.7515624-23.98457048-24-24z"/></g></g></g></svg>